<svg width="126" height="150" viewBox="0 0 126 150" fill="#ff8b12" xmlns="http://www.w3.org/2000/svg">
<g clip-path="url(#clip0_58_56)">
<path fill-rule="evenodd" clip-rule="evenodd" d="M20.9473 0H121.924C122.994 0.00321994 124.02 0.429951 124.777 1.187C125.534 1.94405 125.961 2.9699 125.964 4.04053V116.736C125.781 119.885 121.716 119.958 117.322 119.763H19.458C13.3789 119.763 8.41064 124.731 8.41064 130.811C8.41064 136.89 13.3789 141.858 19.458 141.858H117.322V130.103H125.964V145.044C125.964 147.766 123.743 149.988 121.021 149.988H19.8853C8.94775 150 0 141.052 0 130.115V20.9473C0 9.42383 9.42383 0 20.9473 0ZM24.8413 16.3574H28.3325C30.1147 16.3574 31.5796 17.5415 31.5796 18.9819V101.343C31.5796 102.783 30.1147 103.967 28.3325 103.967H24.8413C23.0591 103.967 21.5942 102.783 21.5942 101.343V18.9819C21.6064 17.5293 23.0591 16.3574 24.8413 16.3574Z" fill="white"/>
</g>
<defs>
<clipPath id="clip0_58_56">
<rect width="125.964" height="150" fill="white"/>
</clipPath>
</defs>
</svg>
