<svg width="24" height="24" viewBox="0 0 24 24" fill="none" xmlns="http://www.w3.org/2000/svg">
<path d="M12.75 15C12.3358 15 12 14.3284 12 13.5C12 12.6716 12.3358 12 12.75 12C13.1642 12 13.5 12.6716 13.5 13.5C13.5 14.3284 13.1642 15 12.75 15Z" />
<path d="M16.2414 0.183414C16.4057 0.325867 16.5 0.532586 16.5 0.750005V1.50001H17.25C18.4926 1.50001 19.5 2.50736 19.5 3.75001V22.5H21.75C22.1642 22.5 22.5 22.8358 22.5 23.25C22.5 23.6642 22.1642 24 21.75 24H2.25C1.83579 24 1.5 23.6642 1.5 23.25C1.5 22.8358 1.83579 22.5 2.25 22.5H4.5V2.25C4.5 1.87677 4.77445 1.56033 5.14393 1.50754L15.6439 0.00754281C15.8592 -0.0232049 16.0772 0.0409614 16.2414 0.183414ZM17.25 3.00001H16.5V22.5H18V3.75001C18 3.33579 17.6642 3.00001 17.25 3.00001ZM6 2.90048V22.5H15V1.61476L6 2.90048Z"/>
</svg>
