<svg width="16" height="16" viewBox="0 0 16 16" fill="#ff8b12" xmlns="http://www.w3.org/2000/svg">
<path fill-rule="evenodd" clip-rule="evenodd" d="M8 3.29289L14 9.29289V13.5C14 14.3284 13.3284 15 12.5 15H3.5C2.67157 15 2 14.3284 2 13.5V9.29289L8 3.29289Z" />
<path fill-rule="evenodd" clip-rule="evenodd" d="M13 2.5V6L11 4V2.5C11 2.22386 11.2239 2 11.5 2H12.5C12.7761 2 13 2.22386 13 2.5Z" />
<path fill-rule="evenodd" clip-rule="evenodd" d="M7.29289 1.5C7.68342 1.10947 8.31658 1.10948 8.70711 1.5L15.3536 8.14645C15.5488 8.34171 15.5488 8.65829 15.3536 8.85355C15.1583 9.04882 14.8417 9.04882 14.6464 8.85355L8 2.20711L1.35355 8.85355C1.15829 9.04882 0.841709 9.04882 0.646447 8.85355C0.451184 8.65829 0.451184 8.34171 0.646447 8.14645L7.29289 1.5Z" />
</svg>
