<svg width="18" height="24" viewBox="0 0 18 24" fill="none" xmlns="http://www.w3.org/2000/svg">
<path d="M18 6.75V21C18 22.6569 16.6569 24 15 24H3C1.34315 24 0 22.6569 0 21V3C0 1.34314 1.34315 0 3 0H11.25L18 6.75ZM13.5 6.75C12.2574 6.75 11.25 5.74264 11.25 4.5V1.5H3C2.17157 1.5 1.5 2.17157 1.5 3V21C1.5 21.8284 2.17157 22.5 3 22.5H15C15.8284 22.5 16.5 21.8284 16.5 21V6.75H13.5Z" fill="#ff8b12" />
<path d="M3.75 18.75C3.75 18.3358 4.08579 18 4.5 18H9C9.41421 18 9.75 18.3358 9.75 18.75C9.75 19.1642 9.41421 19.5 9 19.5H4.5C4.08579 19.5 3.75 19.1642 3.75 18.75Z" fill="#ff8b12"/>
<path d="M3.75 15.75C3.75 15.3358 4.08579 15 4.5 15H13.5C13.9142 15 14.25 15.3358 14.25 15.75C14.25 16.1642 13.9142 16.5 13.5 16.5H4.5C4.08579 16.5 3.75 16.1642 3.75 15.75Z" fill="#ff8b12"/>
<path d="M6.20801 10.188L8.20222 11.5175L10.9848 8.73485C11.099 8.62071 11.2733 8.59241 11.4177 8.6646L14.25 10.125V12.75C14.25 13.1642 13.9142 13.5 13.5 13.5H4.5C4.08579 13.5 3.75 13.1642 3.75 12.75V12C3.75 12 6.05928 10.0888 6.20801 10.188Z" fill="#ff8b12"/>
<path d="M6.375 9C6.99632 9 7.5 8.49632 7.5 7.875C7.5 7.25368 6.99632 6.75 6.375 6.75C5.75368 6.75 5.25 7.25368 5.25 7.875C5.25 8.49632 5.75368 9 6.375 9Z" fill="#ff8b12"/>
</svg>
